<svg xmlns="http://www.w3.org/2000/svg" viewBox="0 0 800 450" role="img" aria-label="Quant Backtester thumbnail">
  <defs>
    <linearGradient id="bgBT" x1="0" y1="0" x2="1" y2="1">
      <stop offset="0" stop-color="#0f1322"/>
      <stop offset="1" stop-color="#1e2548"/>
    </linearGradient>
    <linearGradient id="accentBT" x1="0" y1="0" x2="1" y2="0">
      <stop offset="0" stop-color="#7c5cff"/>
      <stop offset="1" stop-color="#22d3ee"/>
    </linearGradient>
  </defs>
  <rect width="800" height="450" fill="url(#bgBT)"/>
  <!-- grid -->
  <g stroke="#2a3055" stroke-width="1" opacity="0.55">
    <path d="M0 112 H800 M0 224 H800 M0 336 H800"/>
    <path d="M160 0 V450 M320 0 V450 M480 0 V450 M640 0 V450"/>
  </g>
  <!-- candlesticks -->
  <g>
    <line x1="80"  y1="180" x2="80"  y2="330" stroke="#ff4757" stroke-width="2"/>
    <rect x="70"  y="210" width="20" height="90" fill="#ff4757"/>
    <line x1="140" y1="160" x2="140" y2="300" stroke="#11d68b" stroke-width="2"/>
    <rect x="130" y="200" width="20" height="70" fill="#11d68b"/>
    <line x1="200" y1="140" x2="200" y2="280" stroke="#11d68b" stroke-width="2"/>
    <rect x="190" y="170" width="20" height="90" fill="#11d68b"/>
    <line x1="260" y1="130" x2="260" y2="290" stroke="#ff4757" stroke-width="2"/>
    <rect x="250" y="170" width="20" height="100" fill="#ff4757"/>
    <line x1="320" y1="110" x2="320" y2="260" stroke="#11d68b" stroke-width="2"/>
    <rect x="310" y="140" width="20" height="95" fill="#11d68b"/>
    <line x1="380" y1="100" x2="380" y2="240" stroke="#11d68b" stroke-width="2"/>
    <rect x="370" y="130" width="20" height="80" fill="#11d68b"/>
    <line x1="440" y1="120" x2="440" y2="260" stroke="#ff4757" stroke-width="2"/>
    <rect x="430" y="150" width="20" height="90" fill="#ff4757"/>
    <line x1="500" y1="90"  x2="500" y2="230" stroke="#11d68b" stroke-width="2"/>
    <rect x="490" y="120" width="20" height="85" fill="#11d68b"/>
    <line x1="560" y1="80"  x2="560" y2="220" stroke="#11d68b" stroke-width="2"/>
    <rect x="550" y="110" width="20" height="85" fill="#11d68b"/>
    <line x1="620" y1="100" x2="620" y2="230" stroke="#ff4757" stroke-width="2"/>
    <rect x="610" y="130" width="20" height="85" fill="#ff4757"/>
    <line x1="680" y1="70"  x2="680" y2="210" stroke="#11d68b" stroke-width="2"/>
    <rect x="670" y="95"  width="20" height="95" fill="#11d68b"/>
    <line x1="740" y1="60"  x2="740" y2="190" stroke="#11d68b" stroke-width="2"/>
    <rect x="730" y="85"  width="20" height="75" fill="#11d68b"/>
  </g>
  <!-- EMA curve -->
  <path d="M60 260 C 180 230, 260 210, 340 185 S 520 140, 640 120 760 95 790 85"
        fill="none" stroke="url(#accentBT)" stroke-width="3.5" stroke-linecap="round"/>
  <!-- label -->
  <g font-family="Segoe UI, Roboto, sans-serif">
    <text x="40" y="400" font-size="34" font-weight="700" fill="#f4f6ff">Quant Backtester</text>
    <text x="40" y="428" font-size="16" fill="#aab0d0">pandas · numpy · numba</text>
  </g>
</svg>
